<?xml version="1.0" standalone="no"?>
<!DOCTYPE svg PUBLIC "-//W3C//DTD SVG 20010904//EN"
 "http://www.w3.org/TR/2001/REC-SVG-20010904/DTD/svg10.dtd">
<svg version="1.0" xmlns="http://www.w3.org/2000/svg"
 width="280.000000pt" height="280.000000pt" viewBox="0 0 280.000000 280.000000"
 preserveAspectRatio="xMidYMid meet">
<metadata>
Created by potrace 1.11, written by Peter Selinger 2001-2013
</metadata>
<g transform="translate(0.000000,280.000000) scale(0.100000,-0.100000)"
fill="#000000" stroke="none">
<path d="M1180 2744 c-155 -28 -273 -86 -371 -184 -85 -84 -127 -159 -153
-273 -19 -79 -21 -236 -5 -304 56 -238 188 -387 544 -613 559 -355 638 -444
638 -715 -1 -173 -33 -258 -132 -347 -111 -100 -257 -135 -448 -106 -120 17
-192 55 -282 146 -83 83 -143 186 -175 297 -9 33 -21 76 -27 95 -9 33 -39 221
-39 248 0 8 -15 12 -43 12 l-44 0 -8 -362 c-5 -200 -9 -394 -9 -433 l-1 -70
45 0 45 0 12 50 c16 65 32 93 55 101 12 4 73 -21 171 -69 205 -102 247 -111
474 -104 180 6 218 12 336 57 80 30 197 110 252 173 122 138 182 356 150 551
-8 52 -20 107 -26 123 -34 84 -67 140 -123 205 -115 135 -240 229 -595 450
-230 143 -277 177 -349 248 -118 118 -152 209 -141 380 5 79 11 105 36 155 87
170 285 248 515 204 216 -42 357 -207 432 -507 9 -35 16 -79 16 -98 0 -55 15
-74 59 -74 l38 0 8 288 c4 158 8 325 9 372 l1 85 -33 3 c-45 4 -57 -8 -71 -73
-24 -105 -70 -105 -234 -1 -29 18 -83 46 -122 61 -65 26 -82 28 -225 31 -85 1
-166 1 -180 -2z"/>
</g>
</svg>
